# xmcd
#
# Track frame offsets:
#	150
#	4475
#	16577
#	33610
#	50800
#	61312
#	72980
#	75945
#	90635
#	106192
#	120279
#	136100
#	161250
#	178005
#	200025
#
# Disc length: 2872 seconds
#
# Revision: 1
# Processed by: cddbd v1.5.1PL0 Copyright (c) Steve Scherf et al.
# Submitted via: CDex 1.50Beta5
#
DISCID=ba0b360f
DTITLE=ショーロ・クラブ - SONGS
DYEAR=1997
DGENRE=
TTITLE0=Bokka
TTITLE1=ジンタ
TTITLE2=ペレレッカ
TTITLE3=午後の光景
TTITLE4=Va・La・Sa
TTITLE5=Story of Forest
TTITLE6=ka-yu-i
TTITLE7=コンソーロ
TTITLE8=フェスティン
TTITLE9=Truth in the Stream
TTITLE10=Zapp’s Mode
TTITLE11=Dolphin Swing
TTITLE12=シレンシオーゾ
TTITLE13=マルテーロ・マルフェイト
TTITLE14=ピトレスコ
EXTD=
EXTT0=
EXTT1=
EXTT2=
EXTT3=
EXTT4=
EXTT5=
EXTT6=
EXTT7=
EXTT8=
EXTT9=
EXTT10=
EXTT11=
EXTT12=
EXTT13=
EXTT14=
PLAYORDER=
